<svg width="92" height="92" fill="none" xmlns="http://www.w3.org/2000/svg"><g filter="url(#a)"><path d="M46 77.5c19.606 0 35.5-15.894 35.5-35.5S65.606 6.5 46 6.5 10.5 22.394 10.5 42 26.394 77.5 46 77.5Z" fill="#fff" stroke="#DCDDEB"/><path d="M57.086 59.385h-.038c-5.938-.195-12.895-5.951-17.689-10.748-4.8-4.796-10.556-11.757-10.74-17.667-.069-2.074 5.021-5.763 5.074-5.8 1.32-.92 2.787-.593 3.389.24.407.566 4.265 6.412 4.685 7.075.435.689.37 1.713-.173 2.741-.3.571-1.293 2.318-1.76 3.133.504.716 1.834 2.472 4.581 5.22 2.75 2.746 4.504 4.08 5.223 4.583.815-.466 2.562-1.46 3.133-1.76 1.012-.537 2.03-.605 2.725-.178.71.435 6.54 4.311 7.077 4.685.451.318.741.861.8 1.494.055.639-.142 1.315-.553 1.904-.034.05-3.679 5.078-5.734 5.078Z" fill="#0075FF"/></g><defs><filter id="a" x="0" y="0" width="92" height="92" filterUnits="userSpaceOnUse" color-interpolation-filters="sRGB"><feFlood flood-opacity="0" result="BackgroundImageFix"/><feColorMatrix in="SourceAlpha" values="0 0 0 0 0 0 0 0 0 0 0 0 0 0 0 0 0 0 127 0" result="hardAlpha"/><feOffset dy="4"/><feGaussianBlur stdDeviation="5"/><feColorMatrix values="0 0 0 0 0.0784314 0 0 0 0 0.0784314 0 0 0 0 0.168627 0 0 0 0.04 0"/><feBlend in2="BackgroundImageFix" result="effect1_dropShadow_1_38"/><feBlend in="SourceGraphic" in2="effect1_dropShadow_1_38" result="shape"/></filter></defs></svg>