<svg width="92" height="92" fill="none" xmlns="http://www.w3.org/2000/svg"><g filter="url(#a)"><path d="M46 77.5c19.606 0 35.5-15.894 35.5-35.5S65.606 6.5 46 6.5 10.5 22.394 10.5 42 26.394 77.5 46 77.5Z" fill="#fff" stroke="#DCDDEB"/><path d="M45.318 50.014a5.812 5.812 0 1 1 8.22-8.22c.246.246.452.514.646.79.194-.275.4-.544.646-.79a5.803 5.803 0 0 1 4.11-1.702c1.486 0 2.975.567 4.11 1.701.075.076.128.166.2.245 2.403-4.085 1.888-9.411-1.619-12.918A10.631 10.631 0 0 0 54.096 26a10.626 10.626 0 0 0-7.536 3.121c-.45.451-.83.945-1.184 1.45a10.667 10.667 0 0 0-1.183-1.45A10.626 10.626 0 0 0 36.657 26a10.626 10.626 0 0 0-7.535 3.121c-4.163 4.163-4.163 10.91 0 15.071 1.809 1.81 12.755 10.914 13.514 11.674A3.862 3.862 0 0 0 45.376 57a3.87 3.87 0 0 0 2.741-1.134c.178-.178.927-.823 1.973-1.714-1.885-1.6-4.19-3.557-4.772-4.138Z" fill="#0075FF"/><path d="M63.05 41.795a5.797 5.797 0 0 0-4.11-1.704 5.795 5.795 0 0 0-4.11 1.702 5.813 5.813 0 0 0-.646.79 5.82 5.82 0 0 0-.646-.79 5.803 5.803 0 0 0-4.11-1.702 5.812 5.812 0 0 0-4.11 9.922c.987.987 6.957 5.953 7.37 6.367.414.413.955.618 1.496.618.54 0 1.082-.206 1.496-.618.415-.414 6.385-5.382 7.37-6.366a5.81 5.81 0 0 0 0-8.22Z" fill="#123578"/></g><defs><filter id="a" x="0" y="0" width="92" height="92" filterUnits="userSpaceOnUse" color-interpolation-filters="sRGB"><feFlood flood-opacity="0" result="BackgroundImageFix"/><feColorMatrix in="SourceAlpha" values="0 0 0 0 0 0 0 0 0 0 0 0 0 0 0 0 0 0 127 0" result="hardAlpha"/><feOffset dy="4"/><feGaussianBlur stdDeviation="5"/><feColorMatrix values="0 0 0 0 0.0784314 0 0 0 0 0.0784314 0 0 0 0 0.168627 0 0 0 0.04 0"/><feBlend in2="BackgroundImageFix" result="effect1_dropShadow_1_297"/><feBlend in="SourceGraphic" in2="effect1_dropShadow_1_297" result="shape"/></filter></defs></svg>