<svg width="270" height="240" fill="none" xmlns="http://www.w3.org/2000/svg"><g clip-path="url(#a)"><path d="M134.947 240c66.248 0 119.953-53.726 119.953-120S201.195 0 134.947 0 14.994 53.726 14.994 120s53.705 120 119.953 120Z" fill="#CEE5FF"/><path d="M175.214 103.346 34.452 78.516c-8.158-1.44-15.937 4.008-17.375 12.166L2.604 172.794c-1.438 8.158 4.01 15.939 12.168 17.378l140.762 24.829c8.158 1.44 15.937-4.008 17.375-12.166l14.473-82.111c1.438-8.159-4.01-15.939-12.168-17.378Z" fill="#133578"/><path d="M184.21 95.346 43.448 70.516c-8.159-1.439-15.938 4.008-17.376 12.167L11.6 164.794c-1.438 8.159 4.01 15.939 12.168 17.378l140.762 24.83c8.159 1.439 15.938-4.008 17.376-12.167l14.473-82.111c1.438-8.158-4.01-15.939-12.168-17.378Z" fill="#fff"/><path d="m54.296 96.604-13.82-2.437A3 3 0 0 0 37 96.6l-1.5 8.504a3 3 0 0 0 2.434 3.476l13.82 2.438a3 3 0 0 0 3.476-2.434l1.498-8.504a3 3 0 0 0-2.433-3.476Z" fill="#4B3CFB"/><path d="M91.568 164.933 25.55 153.288a3 3 0 0 0-3.475 2.433l-1 5.668a3 3 0 0 0 2.435 3.476l66.017 11.645a3 3 0 0 0 3.475-2.433l1-5.668a3 3 0 0 0-2.434-3.476Z" fill="#DCDDEB"/><path d="M136.6 187.463a8.482 8.482 0 0 0 9.826-6.884 8.482 8.482 0 1 0-16.706-2.947 8.485 8.485 0 0 0 6.88 9.831Z" fill="#0075FF" style="mix-blend-mode:multiply"/><path d="M148.263 189.52a8.483 8.483 0 0 0 9.826-6.884 8.482 8.482 0 1 0-16.706-2.947 8.485 8.485 0 0 0 6.88 9.831Z" fill="#CEE5FF" style="mix-blend-mode:multiply"/><path d="m52.8 129.729-22.243-3.923a3.16 3.16 0 0 0-1.097 6.224l22.243 3.923a3.159 3.159 0 0 0 3.66-2.563 3.161 3.161 0 0 0-2.563-3.661ZM90.127 136.315l-22.243-3.924a3.16 3.16 0 0 0-1.097 6.224l22.243 3.924a3.16 3.16 0 0 0 1.097-6.224ZM127.454 142.899l-22.243-3.924a3.161 3.161 0 0 0-1.097 6.224l22.243 3.924a3.16 3.16 0 0 0 1.097-6.224ZM164.78 149.483l-22.243-3.924a3.161 3.161 0 0 0-1.097 6.224l22.243 3.924a3.16 3.16 0 0 0 1.097-6.224Z" fill="#EFF0F7"/><path d="M227.612 26.587 86.85 51.417c-8.158 1.44-13.606 9.22-12.168 17.378l14.473 82.111c1.438 8.159 9.217 13.606 17.376 12.167l140.761-24.83c8.159-1.439 13.607-9.219 12.169-17.378l-14.473-82.111c-1.438-8.159-9.218-13.606-17.376-12.167Z" fill="#133578"/><path d="M234.151 17.264 93.389 42.093c-8.158 1.438-13.606 9.219-12.168 17.377l14.473 82.112c1.438 8.158 9.217 13.605 17.376 12.166l140.762-24.83c8.158-1.439 13.606-9.219 12.168-17.378L251.527 29.43c-1.438-8.159-9.217-13.606-17.376-12.166Z" fill="#0075FF"/><path d="M252.493 34.915 82.188 64.956l3.58 20.317 170.306-30.041-3.581-20.317ZM141.22 91.22l-41.042 7.24a3.16 3.16 0 0 0 1.097 6.224l41.042-7.24a3.16 3.16 0 0 0-1.097-6.224ZM178.261 84.686l-25.171 4.44a3.16 3.16 0 0 0-2.563 3.661 3.158 3.158 0 0 0 3.66 2.563l25.171-4.44a3.16 3.16 0 1 0-1.097-6.224Z" fill="#133578"/></g><defs><clipPath id="a"><path fill="#fff" d="M0 0h270v240H0z"/></clipPath></defs></svg>