<svg width="1012" height="570" fill="none" xmlns="http://www.w3.org/2000/svg"><path d="M1012 0H0v570h1012V0Z" fill="#CEE5FF"/><mask id="a" style="mask-type:alpha" maskUnits="userSpaceOnUse" x="0" y="0" width="1012" height="570"><path d="M1012 0H0v570h1012V0Z" fill="#CEE5FF"/></mask><g mask="url(#a)"><path d="M913.641 54.238H567.216v575.388h346.425V54.238Z" fill="#AFD3FF"/><path d="M887.645 82.886H593.232v367.739h294.413V82.887Z" fill="#E3F0FF"/><path d="M887.646 474.256c-22.44.357-44.879.588-67.318.694-22.412.218-44.825.178-67.317.257l.951-.951v28.489l-.04 28.469c-.198 18.992-.376 37.985-.812 56.977-.455-18.992-.633-37.985-.831-56.977V473.264h.95c22.413 0 44.825 0 67.317.258 22.492.258 44.687.377 67.1.734ZM753.169 604.448c22.439-.357 44.878-.595 67.317-.714 22.413-.218 44.826-.158 67.318-.238l-.951.952v-27.934l.119-27.953c.178-18.616.356-37.252.792-55.868.455 18.616.634 37.252.812 55.868l.119 27.953c0 9.318.099 18.616 0 27.934v.971h-.951c-22.412-.099-44.825 0-67.317-.257-22.492-.258-44.845-.337-67.258-.714Z" fill="#6FAFFF"/><path d="M765.841 553.794h8.554v-32.87h-8.554v32.87ZM593.232 474.256c22.439-.357 44.878-.589 67.317-.694 22.413-.218 44.825-.179 67.317-.258h.95v57.909c-.198 18.993-.376 37.986-.831 56.978-.436-18.992-.614-37.985-.812-56.978v-56.957l.95.951c-22.412 0-44.825 0-67.317-.258-22.491-.257-45.161-.337-67.574-.693Z" fill="#6FAFFF"/><path d="M727.708 604.448c-22.413.377-44.826.575-67.318.714-22.491.138-44.825.158-67.317.257h-.95v-28.905l.119-27.953c.178-18.616.356-37.252.812-55.868.435 18.616.613 37.252.792 55.868l.118 27.953c0 9.318.099 18.616 0 27.934l-.95-.952c22.413 0 44.825 0 67.317.238 22.492.238 44.964.377 67.377.714ZM715.036 520.905h-8.554v32.87h8.554v-32.87Z" fill="#8DBDF9"/><path d="M887.645 74.004H593.232v8.882h294.413v-8.882ZM887.645 199.537H593.232v8.882h294.413v-8.882ZM887.645 325.071H593.232v8.881h294.413v-8.881Z" fill="#D5E8FF"/><path d="M648.373 199.518v-99.96H618.08v99.96h30.293Z" fill="#8DBDF9"/><path d="M648.373 171.188v-10.984H618.08v10.984h30.293ZM648.373 123.348v-4.084H618.08v4.084h30.293Z" fill="#CBE2FF"/><path d="M844.582 99.579v99.958h30.293V99.579h-30.293Z" fill="#8DBDF9"/><path d="M844.582 127.909v10.983h30.293v-10.983h-30.293ZM874.895 193.571v-4.084h-30.293v4.084h30.293ZM874.875 174.795v-4.084h-30.293v4.084h30.293Z" fill="#CBE2FF"/><path d="M790.035 199.518v-99.96h-22.987v99.96h22.987Z" fill="#8DBDF9"/><path d="M790.055 171.188v-10.984h-22.987v10.984h22.987ZM790.055 123.369v-4.084h-22.987v4.084h22.987ZM669.558 199.517V82.906h-21.185v116.611h21.185Z" fill="#CBE2FF"/><path d="M665.222 138.714V93.87h-12.711v44.844h12.711Z" fill="#F4F9FF"/><path d="M874.895 89.864v109.653h12.77V89.864h-12.77Z" fill="#A7CEFF"/><path d="M877.488 97.457v42.168h7.662V97.457h-7.662Z" fill="#F4F9FF"/><path d="M790.055 92.897v106.62h21.185V92.897h-21.185Z" fill="#CBE2FF"/><path d="M794.392 148.508v40.998h12.711v-40.998h-12.711Z" fill="#F4F9FF"/><path d="M705.493 199.537v-88.579h-35.956v88.579h35.956Z" fill="#A7CEFF"/><path d="M705.493 190.14v-8.247h-35.956v8.247h35.956ZM705.493 176.461v-3.192h-35.956v3.192h35.956Z" fill="#8DBDF9"/><path d="M618.08 199.558v-83.246h-24.848v83.246h24.848Z" fill="#A7CEFF"/><path d="M618.08 190.695v-7.752h-24.848v7.752h24.848ZM618.08 141.192v-7.751h-24.848v7.751h24.848ZM618.061 149.538v-3.014h-24.848v3.014h24.848Z" fill="#8DBDF9"/><path d="M844.582 199.537V82.905H811.22v116.632h33.362Z" fill="#A7CEFF"/><path d="M844.582 187.166v-10.864H811.22v10.864h33.362ZM844.582 117.817v-10.864H811.22v10.864h33.362ZM844.582 129.495v-4.223H811.22v4.223h33.362Z" fill="#8DBDF9"/><path d="m766.988 195.636-31.45-95.224-11.787 3.903 31.451 95.224 11.786-3.903Z" fill="#A7CEFF"/><path d="m763.676 185.541-2.934-8.885-11.787 3.903 2.935 8.885 11.786-3.903ZM744.963 128.921l-2.935-8.885-11.786 3.903 2.934 8.885 11.787-3.903ZM705.513 87.346v112.191h18.255V87.347h-18.255Z" fill="#8DBDF9"/><path d="M705.513 99.242v10.448h18.255V99.242h-18.255ZM705.493 165.973v10.448h18.254v-10.448h-18.254ZM705.513 154.733v4.064h18.255v-4.064h-18.255Z" fill="#F4F9FF"/><path d="M819.497 325.051v-99.959h-30.293v99.959h30.293Z" fill="#8DBDF9"/><path d="M819.496 296.72v-10.983h-30.292v10.983h30.292ZM819.496 248.883v-4.084h-30.292v4.084h30.292Z" fill="#CBE2FF"/><path d="M605.982 225.092v99.959h30.293v-99.959h-30.293Z" fill="#8DBDF9"/><path d="M606.002 253.422v10.983h30.293v-10.983h-30.293ZM636.295 319.104v-4.084h-30.292v4.084h30.292ZM636.295 300.309v-4.084h-30.292v4.084h30.292Z" fill="#CBE2FF"/><path d="M713.809 325.031v-99.959h-22.987v99.959h22.987Z" fill="#8DBDF9"/><path d="M713.809 296.72v-10.983h-22.987v10.983h22.987ZM713.809 248.883v-4.084h-22.987v4.084h22.987ZM789.184 325.051V208.439h-21.185v116.612h21.185Z" fill="#CBE2FF"/><path d="M785.046 264.227v-44.845h-12.711v44.845h12.711Z" fill="#F4F9FF"/><path d="M593.232 239.683v85.348h12.77v-85.348h-12.77Z" fill="#A7CEFF"/><path d="M595.707 245.571v32.83h7.662v-32.83h-7.662Z" fill="#F4F9FF"/><path d="M669.657 218.411v106.62h21.185v-106.62h-21.185Z" fill="#CBE2FF"/><path d="M673.795 274.021v40.999h12.711v-40.999h-12.711Z" fill="#F4F9FF"/><path d="M768.019 325.072v-88.58h-35.956v88.58h35.956Z" fill="#A7CEFF"/><path d="M768.019 315.654v-8.247h-35.956v8.247h35.956ZM768.039 301.994v-3.192h-35.955v3.192h35.955Z" fill="#8DBDF9"/><path d="M887.645 325.051v-106.64h-24.848v106.64h24.848Z" fill="#A7CEFF"/><path d="M887.665 313.751v-9.933h-24.848v9.933h24.848ZM887.645 250.33v-9.933h-24.848v9.933h24.848ZM887.645 261.015v-3.846h-24.848v3.846h24.848Z" fill="#8DBDF9"/><path d="M669.657 325.071V208.439h-33.361v116.632h33.361Z" fill="#A7CEFF"/><path d="M669.657 312.68v-10.864h-33.361v10.864h33.361ZM669.657 243.331v-10.864h-33.361v10.864h33.361ZM669.657 255.009v-4.223h-33.361v4.223h33.361Z" fill="#8DBDF9"/><path d="m831.3 325.068 31.45-95.224-11.786-3.903-31.45 95.224 11.786 3.903Z" fill="#CBE2FF"/><path d="m834.639 315 2.935-8.884-11.787-3.903-2.934 8.884L834.639 315ZM853.332 258.36l2.935-8.885-11.787-3.903-2.934 8.885 11.786 3.903Z" fill="#8DBDF9"/><path d="M713.809 212.86v112.191h18.255V212.86h-18.255Z" fill="#CBE2FF"/><path d="M713.809 224.775v10.448h18.255v-10.448h-18.255ZM713.809 291.507v10.448h18.255v-10.448h-18.255ZM713.809 280.245v4.065h18.255v-4.065h-18.255Z" fill="#F4F9FF"/><path d="M637.384 450.604v-99.959h-22.987v99.959h22.987Z" fill="#8DBDF9"/><path d="M637.384 422.293V411.31h-22.987v10.983h22.987ZM637.384 374.456v-4.084h-22.987v4.084h22.987ZM614.397 450.624V334.012h-21.185v116.612h21.185Z" fill="#CBE2FF"/><path d="M610.26 389.8v-44.844h-12.711V389.8h12.711Z" fill="#F4F9FF"/><path d="M637.384 362.045v88.579h35.955v-88.579h-35.955Z" fill="#A7CEFF"/><path d="M637.384 371.442v8.247h35.955v-8.247h-35.955ZM637.384 385.121v3.192h35.955v-3.192h-35.955ZM866.995 450.604v-99.959h-18.651v99.959h18.651Z" fill="#8DBDF9"/><path d="M866.995 422.274v-10.983h-18.651v10.983h18.651ZM866.995 374.436v-4.084h-18.651v4.084h18.651Z" fill="#CBE2FF"/><path d="M673.358 341.942v108.682h24.116V341.942h-24.116Z" fill="#8DBDF9"/><path d="M673.339 372.73v11.935h24.116V372.73h-24.116ZM697.454 444.121v-4.441h-24.115v4.441h24.115ZM697.475 423.702v-4.441h-24.116v4.441h24.116Z" fill="#CBE2FF"/><path d="M754.337 450.584V337.838h-22.986v112.746h22.986Z" fill="#8DBDF9"/><path d="M754.337 418.625v-12.39h-22.986v12.39h22.986ZM754.337 364.682v-4.6h-22.986v4.6h22.986ZM709.69 450.584V338.413h-12.235v112.171h12.235Z" fill="#CBE2FF"/><path d="M707.295 392.119V348.98h-7.346v43.139h7.346Z" fill="#F4F9FF"/><path d="M808.567 343.984v106.62h39.777v-106.62h-39.777Z" fill="#CBE2FF"/><path d="M816.349 399.574v40.999h23.858v-40.999h-23.858Z" fill="#F4F9FF"/><path d="M808.567 450.604v-95.26h-35.955v95.26h35.955Z" fill="#A7CEFF"/><path d="M808.567 440.513v-8.882h-35.955v8.882h35.955ZM808.567 425.823v-3.45h-35.955v3.45h35.955Z" fill="#8DBDF9"/><path d="M887.665 450.605v-106.64h-20.65v106.64h20.65Z" fill="#A7CEFF"/><path d="M887.645 439.304v-9.932h-20.651v9.932h20.651ZM887.665 375.883v-9.933h-20.65v9.933h20.65ZM887.645 386.549v-3.846h-20.651v3.846h20.651Z" fill="#8DBDF9"/><path d="M731.371 450.604V349.615h-21.68v100.989h21.68Z" fill="#A7CEFF"/><path d="M731.351 439.918v-9.417h-21.68v9.417h21.68ZM731.351 379.868v-9.417h-21.68v9.417h21.68ZM731.371 389.939v-3.647h-21.68v3.647h21.68Z" fill="#8DBDF9"/><path d="M754.337 343.27v107.334h18.255V343.27h-18.255Z" fill="#CBE2FF"/><path d="M754.357 354.65v10.012h18.255V354.65h-18.255ZM754.337 418.487v10.011h18.255v-10.011h-18.255ZM754.338 407.742v3.885h18.255v-3.885h-18.255Z" fill="#F4F9FF"/><path d="m270.483 383.545 15.085 3.202-15.085 4.413a5.39 5.39 0 0 0-3.781 4.092l-3.768 18.098-4.171-17.75a5.428 5.428 0 0 0-4.073-4.051l-15.085-3.438 15.502-4.371a5.42 5.42 0 0 0 3.851-4.177l3.462-17.401 3.906 17.29a5.393 5.393 0 0 0 4.157 4.093ZM200.663 513.263l7.911 1.67-7.925 2.325a2.783 2.783 0 0 0-1.933 2.144l-1.988 9.494-2.183-9.327a2.778 2.778 0 0 0-2.141-2.116l-7.91-1.81 8.133-2.297a2.855 2.855 0 0 0 2.03-2.185l1.807-9.133 2.044 9.077a2.857 2.857 0 0 0 2.155 2.158ZM312.206 368.343l4.588.974-4.588 1.392a1.613 1.613 0 0 0-1.154 1.239l-1.154 5.569-1.265-5.416a1.66 1.66 0 0 0-1.252-1.225l-4.588-1.044 4.727-1.392a1.67 1.67 0 0 0 1.168-1.267l1.057-5.304 1.182 5.262a1.684 1.684 0 0 0 1.279 1.212ZM334.882 461.462l4.602.961-4.602 1.392a1.655 1.655 0 0 0-1.154 1.253l-1.14 5.498-1.265-5.401a1.7 1.7 0 0 0-1.252-1.239l-4.588-1.044 4.727-1.392a1.643 1.643 0 0 0 1.168-1.267l1.057-5.304 1.182 5.262a1.66 1.66 0 0 0 1.265 1.281ZM222.879 492.13l3.782.794-3.782 1.113a1.4 1.4 0 0 0-.945 1.017l-.973 4.538-1.043-4.455a1.39 1.39 0 0 0-1.015-1.016l-3.754-.821 3.879-1.1a1.392 1.392 0 0 0 .974-1.044l.862-4.358.973 4.33a1.388 1.388 0 0 0 1.042 1.002Z" fill="#E4F0FF"/><path d="m474.231 535.133 3.781.794-3.781 1.099a1.39 1.39 0 0 0-.946 1.031l-.945 4.524-1.043-4.441a1.398 1.398 0 0 0-1.015-1.016l-3.782-.863 3.879-1.086a1.39 1.39 0 0 0 .96-1.044l.876-4.358.973 4.33a1.388 1.388 0 0 0 1.043 1.03Z" fill="#E0E0E0"/><path d="m373.685 272.593 3.781.807-3.781 1.1a1.388 1.388 0 0 0-.946 1.03l-.945 4.524-1.043-4.44a1.392 1.392 0 0 0-1.015-1.017l-3.781-.863 3.879-1.1a1.399 1.399 0 0 0 .973-1.044l.862-4.357.973 4.329a1.396 1.396 0 0 0 1.043 1.031Z" fill="#E4F0FF"/><path d="m723.858 396.505 3.782.808-3.782 1.099a1.392 1.392 0 0 0-.945 1.031l-.946 4.524-1.043-4.441a1.388 1.388 0 0 0-1.028-1.016l-3.768-.863 3.879-1.1a1.303 1.303 0 0 0 .959-1.03l.876-4.371.973 4.329a1.396 1.396 0 0 0 1.043 1.03ZM661.211 287.697l3.782.793-3.782 1.114a1.389 1.389 0 0 0-.945 1.016l-.945 4.538-1.043-4.454a1.394 1.394 0 0 0-1.029-1.017l-3.768-.849 3.879-1.1a1.388 1.388 0 0 0 .96-1.044l.876-4.357.973 4.329a1.388 1.388 0 0 0 1.042 1.031Z" fill="#E0E0E0"/><path d="m530.997 78.6 3.768.807-3.768 1.1a1.391 1.391 0 0 0-.946 1.03l-.945 4.524-1.043-4.44a1.387 1.387 0 0 0-1.028-1.017l-3.782-.863 3.893-1.1a1.393 1.393 0 0 0 .959-1.044l.862-4.357.987 4.33a1.396 1.396 0 0 0 1.043 1.03Z" fill="#E4F0FF"/><path d="m373.782 477.346 7.646 1.628-7.646 2.228a2.78 2.78 0 0 0-1.919 2.088l-1.918 9.16-2.114-8.993a2.785 2.785 0 0 0-2.057-2.06l-7.661-1.74 7.869-2.228a2.775 2.775 0 0 0 1.961-2.102l1.751-8.826 1.975 8.77a2.78 2.78 0 0 0 2.113 2.075Z" fill="#E0E0E0"/><path d="m389.951 310.597 7.647 1.615-7.647 2.241a2.79 2.79 0 0 0-1.919 2.075l-1.904 9.174-2.113-9.007a2.789 2.789 0 0 0-2.072-2.047l-7.647-1.74 7.869-2.227a2.778 2.778 0 0 0 1.947-2.116l1.752-8.826 1.974 8.77a2.783 2.783 0 0 0 2.113 2.088ZM496.684 32.284l7.647 1.615-7.647 2.241a2.778 2.778 0 0 0-1.932 2.088l-1.905 9.16-2.169-9.006a2.783 2.783 0 0 0-2.071-2.047l-7.647-1.74 7.869-2.227a2.782 2.782 0 0 0 1.946-2.103l1.752-8.826 1.988 8.757a2.784 2.784 0 0 0 2.169 2.088ZM715.586 221.056l13.138 2.784-13.138 3.842a4.728 4.728 0 0 0-3.309 3.578l-3.323 15.745-3.587-15.425a4.742 4.742 0 0 0-3.559-3.522l-13.138-2.993 13.514-3.814a4.741 4.741 0 0 0 3.35-3.634l3.017-15.174 3.406 15.063a4.726 4.726 0 0 0 3.629 3.55Z" fill="#E4F0FF"/><path d="M318.087.432H195.088v128.395h122.999V.432Z" fill="#8DC0FF"/><path d="M309.745.432H186.746v128.395h122.999V.432Z" fill="#E6F1FF"/><path d="M309.787 128.855H186.718V.39h123.069v128.465Zm-122.999-.069h122.929V.488H186.788v128.298Z" fill="#E0E0E0"/><path d="M293.229 17.695h-89.938v93.871h89.938V17.695Z" fill="#FAFAFA"/><path d="M203.29 112.192a15.422 15.422 0 0 1-2.224 2.575c-1.39 1.517-3.448 3.578-5.714 5.805-2.266 2.228-4.338 4.177-5.881 5.638a13.551 13.551 0 0 1-2.6 2.158 16.207 16.207 0 0 1 2.211-2.589c1.39-1.518 3.461-3.564 5.728-5.805 2.266-2.242 4.351-4.177 5.895-5.638a13.59 13.59 0 0 1 2.585-2.144ZM293.256 111.955a14.317 14.317 0 0 1 2.586 2.228c1.516 1.392 3.573 3.452 5.798 5.721a220.973 220.973 0 0 1 5.561 5.875c.823.78 1.551 1.653 2.169 2.603a13.577 13.577 0 0 1-2.572-2.199c-1.516-1.392-3.573-3.467-5.798-5.736-2.224-2.269-4.171-4.371-5.644-5.902a14.37 14.37 0 0 1-2.1-2.59ZM292.978 17.945a14.546 14.546 0 0 1 2.211-2.59c1.39-1.517 3.461-3.563 5.728-5.805a197.478 197.478 0 0 1 5.867-5.568 13.358 13.358 0 0 1 2.599-2.172c-.633.93-1.38 1.777-2.224 2.52-1.39 1.517-3.462 3.578-5.728 5.819-2.266 2.241-4.352 4.176-5.881 5.638a14.323 14.323 0 0 1-2.572 2.158ZM203.04 18.168a14.599 14.599 0 0 1-2.586-2.213c-1.515-1.393-3.559-3.467-5.784-5.736a220.844 220.844 0 0 1-5.561-5.875 15.482 15.482 0 0 1-2.169-2.603c.948.626 1.812 1.37 2.572 2.213 1.516 1.393 3.574 3.467 5.812 5.736a196.731 196.731 0 0 1 5.561 5.889 14.309 14.309 0 0 1 2.155 2.589Z" fill="#B8D9FF"/><path d="M292.978 111.565a3.515 3.515 0 0 1 0-.459v-6.376c0-4.455 0-10.914-.097-19.128 0-16.44-.097-39.87-.167-67.908l.348.348h-89.688l.389-.39v93.871l-.334-.348 64.941.181 18.241.084h6.506H286.75l-18.171.097-65.289.321h-.403V17.249H293.326v.348c-.084 28.135-.139 51.634-.181 68.13 0 8.172 0 14.618-.097 19.045v6.278c0 .306-.07.515-.07.515Z" fill="#B8D9FF"/><path d="M263.253 49.602h-30.002v30.042h30.002V49.602Z" fill="#4B3CFB"/><path d="M317.976 160.791H194.977v128.396h122.999V160.791Z" fill="#8DC0FF"/><path d="M309.634 160.791H186.635v128.396h122.999V160.791Z" fill="#E6F1FF"/><path d="M309.69 289.228H186.607V160.763H309.69v128.465Zm-123.014-.083h122.93V160.833h-122.93v128.312Z" fill="#E0E0E0"/><path d="M293.117 178.053h-89.938v93.871h89.938v-93.871Z" fill="#FAFAFA"/><path d="M203.179 272.551a15.135 15.135 0 0 1-2.224 2.589c-1.391 1.517-3.448 3.564-5.714 5.805a183.494 183.494 0 0 1-5.881 5.569 14.843 14.843 0 0 1-2.6 2.171 14.85 14.85 0 0 1 2.224-2.519c1.391-1.518 3.462-3.578 5.728-5.82 2.266-2.241 4.352-4.176 5.895-5.638a14.31 14.31 0 0 1 2.572-2.157ZM293.104 272.328a13.899 13.899 0 0 1 2.585 2.213c1.516 1.392 3.574 3.467 5.798 5.722a198.166 198.166 0 0 1 5.561 5.888c.83.773 1.559 1.647 2.169 2.604a14.68 14.68 0 0 1-2.572-2.214c-1.515-1.392-3.573-3.466-5.798-5.735-2.224-2.269-4.17-4.358-5.644-5.889a14.93 14.93 0 0 1-2.099-2.589ZM292.867 178.304a14.842 14.842 0 0 1 2.211-2.575c1.39-1.518 3.462-3.578 5.728-5.806 2.266-2.227 4.337-4.176 5.867-5.638a14.118 14.118 0 0 1 2.6-2.158c-.632.94-1.375 1.8-2.211 2.562-1.39 1.517-3.462 3.578-5.728 5.819-2.266 2.241-4.352 4.176-5.881 5.638a13.57 13.57 0 0 1-2.586 2.158ZM202.887 178.541a15.176 15.176 0 0 1-2.586-2.228c-1.515-1.392-3.559-3.452-5.783-5.721-2.225-2.269-4.143-4.344-5.534-5.833a14.896 14.896 0 0 1-2.169-2.603 14.79 14.79 0 0 1 2.572 2.213c1.516 1.392 3.574 3.466 5.812 5.736a179.725 179.725 0 0 1 5.561 5.902 13.613 13.613 0 0 1 2.127 2.534Z" fill="#B8D9FF"/><path d="M292.867 271.952a2.767 2.767 0 0 1 0-.446v-6.39c0-4.441 0-10.914-.097-19.127 0-16.441-.098-39.857-.167-67.908l.347.348h-89.687l.389-.404v93.871l-.334-.334 64.941.167 18.24.097h6.507a2.087 2.087 0 0 1-.403 0h-5.965l-18.171.084-65.149.181h-.431V177.691H293.256v.348c-.083 28.135-.139 51.634-.181 68.131 0 8.185-.069 14.631-.097 19.058V271.492a4.052 4.052 0 0 1-.111.46Z" fill="#B8D9FF"/><path d="M263.157 209.974h-30.016v30.042h30.016v-30.042Z" fill="#4B3CFB"/><path d="m394.665 433.201-20.132 35.666 28.126 28.344 29.46-32.005-37.454-32.005Z" fill="#FFBE9D"/><path d="m220.961 545.253 38.108-.904s19.951-12.112 21.522-13.017c1.571-.905 10.649-2.784 10.649-2.784l60.409 18.947v5.568H210.2v-4.218l6.507-.682 4.254-2.91Z" fill="#87BDFF"/><path d="M376.743 463.814c-1.14-.181-33.2 49.852-33.2 49.852l-38.303 7.03-42.459 23.666s-.959 4.803 3.837 5.123c4.797.32 30.587-11.137 30.587-11.137s-8.829 4.302-7.147 9.842c1.975 6.502 18.63 1.392 18.63 1.392l35.578-2.31a11.672 11.672 0 0 0 8.411-4.427l4.533-5.736 49.8-39.634s-4.407-29.833-30.267-33.661Z" fill="#133578"/><path d="M319.95 531.221a4.188 4.188 0 0 1-.848.905 24.722 24.722 0 0 1-2.655 2.074 22.539 22.539 0 0 1-4.435 2.353 19.731 19.731 0 0 1-6.02 1.239 53.643 53.643 0 0 0-6.006.473 17.566 17.566 0 0 0-4.505 1.782c-2.461 1.392-3.726 2.576-3.809 2.478-.084-.097.236-.376.834-.919a19.365 19.365 0 0 1 2.711-2.004 16.865 16.865 0 0 1 4.63-1.991 46.006 46.006 0 0 1 6.089-.543 20.95 20.95 0 0 0 10.233-3.299c2.377-1.49 3.698-2.645 3.781-2.548ZM348.632 525.318c-.195 0-.667-2.784-2.238-5.958a58.285 58.285 0 0 1-2.851-5.749 19.503 19.503 0 0 1 3.504 5.443 11.973 11.973 0 0 1 1.585 6.264ZM358.28 528.325a8.544 8.544 0 0 1-2.308-1.56 29.424 29.424 0 0 1-8.036-10.677 8.581 8.581 0 0 1-.875-2.659 78.774 78.774 0 0 0 4.852 8.018 76.57 76.57 0 0 0 6.367 6.878ZM370.014 518.01a4.329 4.329 0 0 1-.194-1.253c0-.808-.139-1.977-.153-3.425a69.694 69.694 0 0 1 .764-11.29 72.51 72.51 0 0 1 2.572-11.04c.445-1.392.848-2.478 1.168-3.229.121-.402.304-.783.542-1.128a43.075 43.075 0 0 1-1.209 4.51 90.59 90.59 0 0 0-3.323 22.177 44.011 44.011 0 0 1-.167 4.678Z" fill="#fff"/><path opacity=".3" d="M373.393 491.253a58.533 58.533 0 0 0-3.24 23.889 61.94 61.94 0 0 0 3.24-23.889Z" fill="#133578"/><path d="m535.334 571.174 4.004-31.935 151.723-84.488s22.244 36.014 30.753 116.451l-106.608-.501-79.872.473Z" fill="#133578"/><path d="m454.989 258.879-19.353 21.55-3.198 42.906 37.233 76.441 42.695 89.987c3.518 7.726 7.063 25.532 4.561 35.652 0 0-6.952 24.502 28.334 26.131 19.241.891 41.375-4.177 57.516-9.007l.417-.126a109.986 109.986 0 0 0 64.899-52.051l24.761-34.233c-5.478-21.341-13.903-15.522-17.226-23.582-16.016-38.715-29.196-66.683-29.196-66.683l-53.053-122.396c-7.939-17.972-17.949-24.557-29.613-27.438a55.538 55.538 0 0 0-26.305.083l-26.068 6.279-56.404 36.487Z" fill="#0075FF"/><path d="M434.371 480.534c10.872-12.529 28.501-98.911 28.501-98.911L435.636 280.43s-12.596 14.353-16.503 28.079l-22.828 120.934s-8.342 1.74-8.258 14.562c.013 8.631 46.324 36.529 46.324 36.529Z" fill="#0075FF"/><path d="M483.101 427.632a5.701 5.701 0 0 1-.515-.863l-1.39-2.534-4.852-9.396c-4.06-8.033-9.621-18.989-15.752-31.1l-15.516-31.198-4.643-9.494c-.515-1.072-.918-1.935-1.224-2.59a4.556 4.556 0 0 1-.389-.932c.198.27.37.559.514.863l1.391 2.533 4.852 9.397c4.059 8.019 9.62 18.989 15.752 31.114L476.9 414.63l4.644 9.494c.5 1.072.903 1.935 1.223 2.589.146.293.258.601.334.919ZM675.1 440.956a6.88 6.88 0 0 1-.32 1.169l-1.056 3.313-.779 2.395c-.306.877-.681 1.796-1.071 2.784-.792 2.005-1.598 4.316-2.78 6.752-.556 1.239-1.14 2.533-1.738 3.884-.598 1.35-1.39 2.687-2.072 4.107-1.39 2.867-3.142 5.777-4.935 8.881a151.695 151.695 0 0 1-29.711 35.611c-2.78 2.311-5.297 4.566-7.855 6.445-1.279.947-2.461 1.921-3.67 2.785-1.21.863-2.391 1.628-3.504 2.408-2.196 1.573-4.323 2.784-6.145 3.926-.917.557-1.765 1.086-2.558 1.545l-2.224 1.142-3.073 1.628c-.355.198-.722.375-1.098.529a6.807 6.807 0 0 1 1.029-.654l3.003-1.754 2.168-1.239c.793-.473 1.627-1.03 2.531-1.601 1.793-1.169 3.893-2.408 6.061-4.009l3.462-2.436c1.196-.85 2.378-1.824 3.629-2.785 2.544-1.893 5.075-4.176 7.786-6.459a155.558 155.558 0 0 0 29.585-35.458c1.793-3.076 3.559-5.972 4.963-8.812.723-1.392 1.474-2.784 2.1-4.079l1.793-3.842c1.182-2.422 2.03-4.705 2.85-6.682.403-1.002.793-1.921 1.126-2.784l.835-2.367 1.181-3.271c.137-.369.3-.727.487-1.072Z" fill="#133578"/><path opacity=".3" d="M577.07 436.222c11.345-.209 27.361-2.102 38.261-5.276 10.9-3.174 21.327-8.645 29.127-16.859 7.799-8.213 12.846-19.489 12.512-30.78-6.409 13.936-18.921 26.632-33.144 33.843-4.741 2.408-13.291 6.613-14.265 5.36l-32.491 13.712Z" fill="#133578"/><path d="M527.715 418.417c1.974-2.186 50.481-38.506 50.481-38.506l39.777 42.167-66.873 28.288-23.385-31.949Z" fill="#FFBE9D"/><path d="M608.352 427.104c8.953-3.619 17.601-7.448 23.468-11.972 27.806-21.481 29.641-40.859 26.026-55.031-3.962-15.592-67.206-125.291-74.186-132.349-6.979-7.058-29.029-18.362-51.065 6.821-12.791 14.631 12.638 55.866 12.638 55.866l45.184 79.184c-12.721-2.158-18.532 10.915-18.532 10.915l36.467 46.566Z" fill="#0075FF"/><path d="M572.844 383.92a2.452 2.452 0 0 1-.097-.473 13.385 13.385 0 0 1 .778-6.738 11.135 11.135 0 0 1 6.09-5.694 24.776 24.776 0 0 1 10.816-1.684l-.278.445c-4.616-8.032-10.121-17.666-16.058-28.009l-20.534-36.195-6.159-11.012a280.192 280.192 0 0 0-1.641-3.021 10.443 10.443 0 0 1-.528-1.072c.249.313.468.648.653 1.002.445.724 1.029 1.713 1.766 2.952l6.354 10.9c5.338 9.285 12.637 22.037 20.729 36.112l15.933 28.079.278.473h-.556a24.644 24.644 0 0 0-10.581 1.545 10.795 10.795 0 0 0-5.964 5.374 12.447 12.447 0 0 0-1.043 5.179c0 1.239.084 1.837.042 1.837ZM655.872 354.769c.168.288.307.591.417.905.236.599.667 1.476 1.043 2.659a37.84 37.84 0 0 1 1.974 10.316 38.78 38.78 0 0 1-.32 7.28 45.85 45.85 0 0 1-2.002 8.116 54.133 54.133 0 0 1-3.865 8.353 66.202 66.202 0 0 1-5.561 8.158 85.514 85.514 0 0 1-26.916 21.536 73.201 73.201 0 0 1-9.621 4.177c-1.168.445-2.099.696-2.711.891a5.266 5.266 0 0 1-.973.25 6.23 6.23 0 0 1 .918-.39c.611-.236 1.529-.529 2.669-1.016a89.318 89.318 0 0 0 9.482-4.371 88.273 88.273 0 0 0 26.596-21.55 67.209 67.209 0 0 0 5.561-8.047 56.192 56.192 0 0 0 3.851-8.255 45.844 45.844 0 0 0 2.03-7.991 37.9 37.9 0 0 0 .403-7.155 40.007 40.007 0 0 0-1.724-10.26c-.333-1.184-.723-2.075-.903-2.701a3.958 3.958 0 0 1-.348-.905Z" fill="#133578"/><path opacity=".3" d="M590.07 369.623a36.256 36.256 0 0 1 25.359 14.867 7.934 7.934 0 0 1 1.53 3.174 3.133 3.133 0 0 1-1.21 3.133 3.187 3.187 0 0 1-3.142-.139 10.422 10.422 0 0 1-2.419-2.214c-6.382-7.239-11.804-13.378-19.77-18.821" fill="#133578"/><path d="M614.692 396.992c-.111 0-1.043-1.81-2.781-4.705a72.718 72.718 0 0 0-7.549-10.664 60.484 60.484 0 0 0-9.593-8.826c-2.683-1.991-4.477-3.063-4.407-3.174.462.165.905.38 1.321.64.834.446 1.988 1.17 3.392 2.116a52.393 52.393 0 0 1 9.829 8.771 59.702 59.702 0 0 1 7.452 10.886c.793 1.49 1.391 2.715 1.752 3.578.252.433.448.896.584 1.378ZM564.363 216.072c-3.728.14-7.422.776-10.983 1.893a35.931 35.931 0 0 0-10.65 5.638 33.046 33.046 0 0 0-9.5 11.188 33.09 33.09 0 0 0-3.721 14.204 35.466 35.466 0 0 0 1.46 11.959 41.331 41.331 0 0 0 4.74 10.107s-.194-.195-.5-.599a21.139 21.139 0 0 1-1.279-1.851 31.574 31.574 0 0 1-3.448-7.504 35.467 35.467 0 0 1-1.641-12.139 33.32 33.32 0 0 1 3.752-14.516 33.271 33.271 0 0 1 9.734-11.392 35.645 35.645 0 0 1 10.9-5.568 31.806 31.806 0 0 1 8.119-1.392c.974-.084 1.724 0 2.239 0 .257-.04.519-.049.778-.028Z" fill="#133578"/><path d="m448.58 454.32-1.724-3.397-3.893-1.768s-16.684 2.687-20.743 9.633c-4.06 6.947-20.132 31.741-19.464 36.683.667 4.942 4.893 7.587 7.73 6.529 2.836-1.058 8.077-7.949 8.077-7.949l2.239-.293 26.415 6.084 3.142-5.429-24.608-9.077 13.388-1.322 11.721-12.53-2.28-17.164Z" fill="#05C168"/><path d="M473.633 496.236a14.83 14.83 0 0 0 2.196 13.713c4.338 5.721 10.803 14.701 16.892 22.691 4.755 6.223 36.76 22.706 54.055 31.323a14.755 14.755 0 0 0 10.465 1.049 14.774 14.774 0 0 0 8.512-6.186 127.545 127.545 0 0 0 14.543-30.181 14.832 14.832 0 0 0-.491-10.453 14.802 14.802 0 0 0-7.267-7.519l-74.45-35.165a14.751 14.751 0 0 0-12.072-.247 14.781 14.781 0 0 0-8.226 8.85l-4.157 12.125Z" fill="#fff"/><path d="M473.633 496.237s0-.265.208-.752l.709-2.186c.64-1.935 1.585-4.747 2.781-8.352a16.03 16.03 0 0 1 2.947-5.652 14.81 14.81 0 0 1 6.145-4.427 15.01 15.01 0 0 1 8.648-.655c1.551.404 3.052.978 4.477 1.713l4.518 2.116 43.391 20.422 25.623 12.098a15.129 15.129 0 0 1 8.203 12.195 16.879 16.879 0 0 1-1.223 7.643c-.848 2.45-1.752 4.886-2.781 7.294a131.458 131.458 0 0 1-6.771 13.922 125.67 125.67 0 0 1-3.92 6.487 20.676 20.676 0 0 1-2.28 3.035 15.167 15.167 0 0 1-8.015 4.404c-3.06.608-6.233.256-9.086-1.008-4.282-2.06-8.342-4.176-12.387-6.236-8.036-4.177-15.613-8.172-22.593-12.14-3.503-1.976-6.854-3.939-9.996-5.944a57.573 57.573 0 0 1-8.703-6.334 37.996 37.996 0 0 1-3.128-3.926c-.96-1.309-1.905-2.589-2.781-3.814a776.745 776.745 0 0 0-5.172-6.961 484.575 484.575 0 0 1-4.49-6.084 44.393 44.393 0 0 1-3.601-5.262 14.736 14.736 0 0 1-1.46-8.603 10.68 10.68 0 0 1 .751-2.979s0 .25-.195.751a16.118 16.118 0 0 0-.417 2.242 14.801 14.801 0 0 0 1.571 8.464 44.059 44.059 0 0 0 3.629 5.179l4.546 6.041 5.2 6.961 2.85 3.801a35.694 35.694 0 0 0 3.1 3.87 57.452 57.452 0 0 0 8.634 6.222c3.142 1.977 6.492 3.926 9.996 5.889 6.951 3.94 14.57 7.949 22.592 12.07 4.018 2.032 8.147 4.176 12.374 6.209a14.412 14.412 0 0 0 16.294-3.272 20.046 20.046 0 0 0 2.197-2.923 84.722 84.722 0 0 0 3.879-6.46 130.056 130.056 0 0 0 6.743-13.837c1.001-2.395 1.89-4.817 2.78-7.253a15.898 15.898 0 0 0 1.196-7.351 14.39 14.39 0 0 0-7.8-11.61l-25.581-12.139-43.336-20.562-4.504-2.144a21.718 21.718 0 0 0-4.366-1.698 14.588 14.588 0 0 0-8.341.598 14.426 14.426 0 0 0-6.02 4.26 15.953 15.953 0 0 0-2.948 5.569c-1.251 3.591-2.238 6.376-2.905 8.352-.334.919-.584 1.643-.779 2.158-.195.515-.403.599-.403.599Z" fill="#133578"/><path d="M444.311 466.737s1.71-12.278 5.895-13.517c4.185-1.239 30.239-9.063 30.239-9.063l71.406-49.059 27.875 53.555-65.344 26.451s-2.558 3.355-5.408 2.06c0 0-4.324 5.262-6.618 5.569-2.294.306-1.474 1.545-1.474 1.545s-19.144 32.019-23.746 32.645c-4.602.627-10.399-.236-10.232-3.967 0 0-8.62 3.132-11.401-.181 0 0-6.687 5.095-11.039-.362a65.612 65.612 0 0 1-3.1-6.084s-5.784 7.17-11.011 4.678c-4.977-2.381-3.865-10.093-1.14-14.813 2.725-4.719 15.098-29.457 15.098-29.457ZM417.451 495.722c-.111 0-.514-.71-1.39-1.782a13.895 13.895 0 0 0-9.023-5.026 14.605 14.605 0 0 1-2.238-.223 4.917 4.917 0 0 1 2.28-.278 12.022 12.022 0 0 1 9.398 5.234 4.9 4.9 0 0 1 .973 2.075Z" fill="#133578"/><path d="M439.834 475.118a28.103 28.103 0 0 1-3.503 2.784c-2.197 1.657-5.255 3.898-8.439 6.613a61.76 61.76 0 0 0-7.549 7.587c-1.738 2.116-2.656 3.536-2.781 3.48.122-.388.305-.754.542-1.085a26.911 26.911 0 0 1 1.835-2.715 49.58 49.58 0 0 1 7.466-7.81 96.87 96.87 0 0 1 8.62-6.487 26.106 26.106 0 0 1 3.809-2.367Z" fill="#133578"/><path d="m501.55 531.388 20.576-39.216 37.135 16.984-24.219 42.808-33.492-20.576Z" fill="#0075FF"/><path d="M476.984 497.267c-.234.914-.594 1.79-1.071 2.604a55.079 55.079 0 0 1-3.434 5.888 53.44 53.44 0 0 1-4.171 5.402 9.356 9.356 0 0 1-2.016 1.977c-.167-.14 2.628-3.397 5.561-7.782 2.934-4.385 4.922-8.186 5.131-8.089ZM463.345 497.809a27.966 27.966 0 0 1-3.128 8.047 28.27 28.27 0 0 1-4.922 7.085c-.181-.139 2.058-3.271 4.282-7.433 2.225-4.163 3.559-7.769 3.768-7.699ZM448.107 495.123a28.133 28.133 0 0 1-2.78 6 15.939 15.939 0 0 1-4.018 5.248c-.139-.139 1.668-2.422 3.392-5.569 1.724-3.146 3.198-5.791 3.406-5.679ZM499.687 474.784c0 .195-7.605-1.67-16.878-4.176-9.273-2.506-16.684-4.706-16.684-4.887 0-.181 7.605 1.671 16.879 4.177 9.273 2.506 16.739 4.691 16.683 4.886ZM496.517 468.241a8.96 8.96 0 0 1-2.683-.641 50.499 50.499 0 0 1-6.201-2.422 52.64 52.64 0 0 1-5.853-3.174 9.242 9.242 0 0 1-2.211-1.643c.112-.181 3.699 2.005 8.342 4.176 4.644 2.172 8.662 3.425 8.606 3.704Z" fill="#fff"/><path opacity=".3" d="M508.96 473.113c-.319-.613-.528-1.239-.834-1.865a52.303 52.303 0 0 0-13.694-17.305c-.529-.431-1.238-.877-1.835-.542a1.186 1.186 0 0 0-.459 1.392c.17.493.45.941.82 1.308 5.186 6.098 9.357 11.931 14.543 18.028.389.515 1.807-.32 1.459-1.016Z" fill="#133578"/><path d="M385.947 525.541a21.656 21.656 0 0 1 2.308-3.119 321.547 321.547 0 0 1 5.951-7.197 429.404 429.404 0 0 1 6.103-7.058 19.774 19.774 0 0 1 2.697-2.784 20.37 20.37 0 0 1-2.308 3.118 357.845 357.845 0 0 1-5.936 7.197c-2.35 2.784-4.519 5.276-6.118 7.044a21.622 21.622 0 0 1-2.697 2.799ZM391.619 545.365c-.18 0 2.878-8.353 6.827-18.571 3.948-10.218 7.299-18.39 7.48-18.307.18.084-2.864 8.353-6.813 18.571-3.948 10.219-7.299 18.39-7.494 18.307ZM409.415 534.395a118.56 118.56 0 0 1-.25-13.114c-.075-4.377.088-8.755.487-13.114.326 4.363.409 8.741.25 13.114.075 4.377-.087 8.754-.487 13.114Z" fill="#133578"/><path d="M364.759 173.737c0-7.086 2.252-9.48.598-10.803-5.923-4.747-11.206-17.22-11.693-22.761-1.126-13.03 9.872-24.488 9.872-24.488 2.043-6.96 4.866-16.19 13.124-22.594 8.953-6.96 22.981-15.23 34.201-13.782 11.22 1.448 19.325 2.144 26.499 10.9l-15.669 139.102c-8.703-.265-16.447-5.764-22.355-12.181-5.909-6.418-10.581-13.922-16.684-20.089-4.588-4.608-5.561-2.714-13.458-13.169-4.922-6.502-4.505-3.634-4.435-10.135Z" fill="#211F54"/><path d="M475.844 131.263c-9.816-28.176-34.382-45.94-62.23-35.332l-2.516 1.142a53.312 53.312 0 0 0-27.177 27.718 53.413 53.413 0 0 0-1.199 38.825c8.634 24.362 18.491 51.147 24.302 63.69 12.026 25.963 39.93 18.306 39.93 18.306l11.845 22.553a52.09 52.09 0 0 0 35.984-5.866 52.2 52.2 0 0 0 23.354-28.033l-42.293-103.003Z" fill="#FFBE9D"/><path d="M446.378 180.282a4.016 4.016 0 0 0 5.281 1.871 3.838 3.838 0 0 0 2.103-2.119 3.843 3.843 0 0 0-.045-2.988 4.003 4.003 0 0 0-5.281-1.87 3.838 3.838 0 0 0-2.103 2.119 3.862 3.862 0 0 0 .045 2.987ZM409.121 196.892a4.018 4.018 0 0 0 5.291 1.867 3.865 3.865 0 0 0 2.058-5.107 4.005 4.005 0 0 0-5.281-1.871 3.853 3.853 0 0 0-2.111 2.119 3.837 3.837 0 0 0 .043 2.992ZM396.818 188.236c.677.243 2.376-3.142 6.206-5.079 3.83-1.938 7.655-1.439 7.834-2.125.103-.312-.752-.875-2.458-1.204a11.034 11.034 0 0 0-6.573 1.126 10.657 10.657 0 0 0-4.663 4.633c-.665 1.496-.668 2.55-.346 2.649ZM437.004 170.817c.704.17 2.058-3.339 5.674-5.702 3.617-2.363 7.473-2.23 7.583-2.933.064-.319-.863-.826-2.583-.943a11.042 11.042 0 0 0-6.446 1.82 10.511 10.511 0 0 0-4.169 5.092c-.529 1.555-.393 2.596-.059 2.666ZM436.004 205.684c-.099-.223-2.696.572-6.831 2.04-1.032.4-2.109.698-2.571.093-.462-.605-.722-1.87-.823-3.265-.278-2.855-.561-5.804-.884-8.977-1.36-12.712-2.887-23-3.394-22.944-.507.057.176 10.431 1.545 23.163.349 3.125.696 6.106 1.023 8.963.193 1.306.201 2.901 1.447 4.125a2.784 2.784 0 0 0 2.351.611 6.86 6.86 0 0 0 1.783-.614c4.024-1.745 6.452-2.973 6.354-3.195ZM448.697 202.603c-.636.284 1.467 4.468-.612 9.257-2.078 4.788-6.747 6.579-6.478 7.185.122.273 1.406.306 3.355-.611a11.706 11.706 0 0 0 5.549-5.767 10.166 10.166 0 0 0 .233-7.635c-.779-1.808-1.772-2.6-2.047-2.429ZM426.388 157.109c.994.768 4.314-2.044 8.909-4.274 4.594-2.23 8.795-3.279 8.796-4.527-.023-.595-1.22-1.139-3.229-1.2a17.187 17.187 0 0 0-13.484 6.714c-1.161 1.631-1.446 2.921-.992 3.287ZM389.827 170.987c1.118.531 3.321-1.722 6.486-3.387 3.165-1.666 6.189-2.397 6.353-3.632.041-.587-.819-1.245-2.421-1.475a10.077 10.077 0 0 0-6.034 1.249 10.241 10.241 0 0 0-4.317 4.406c-.646 1.511-.561 2.599-.067 2.839ZM437.36 90.21a53.475 53.475 0 0 0-2.78-1.016c-7.758-2.785-16.475-4.316-23.149.18-3.837 2.576-6.284 6.808-9.968 9.62-4.977 3.801-11.595 4.608-17.073 7.643a23.646 23.646 0 0 0-8.133 7.607 23.695 23.695 0 0 0-3.754 10.491c-.57 5.819.973 12.111-1.752 17.262-1.265 2.394-5.561 4.065-7.048 6.306 0 0-2.656 18.933 11.845 18.098l1.821-1.545 14.223-18.836c4.741-1.601 9.621-2.784 11.692-7.141 1.39-2.882 1.001-6.362 1.196-9.592l7.605-9.049c2.405-.599 5.06-.821 7.452-1.392a21.58 21.58 0 0 0 13.707-9.895 21.642 21.642 0 0 0 2.392-16.75l1.724-1.991Z" fill="#211F54"/><path d="M413.531 111.927c3.197-2.617 9.648-8.172 10.246-12.181 1.307-8.7 6.785-16.608 14.626-19.49a19.995 19.995 0 0 1 12.632-.062 20.022 20.022 0 0 1 10.155 7.524c9.287-3.898 20.854-1.949 29.001 4.9a33.407 33.407 0 0 1 9.273 13.083 33.453 33.453 0 0 1 2.114 15.901c-.348 2.785-1.043 5.68 0 8.353 1.39 3.258 4.824 4.789 7.66 6.752 7.744 5.332 11.693 15.522 11.526 25.058-.167 9.536-1.474 13.365-5.853 17.123-8.592 7.379 9.899 24.613-6.604 31.699l-29.947-58.302-.07.111a6.626 6.626 0 0 1-6.173 3.494c-16.683-1.072-15.613-18.598-12.29-21.898a61.116 61.116 0 0 1-14.222-6.111c-4.408-2.784-11.887-8.269-13.417-13.42-3.392 1.573-20.062-1.392-18.657-2.534Z" fill="#211F54"/><path d="M478.402 152.131c.361-.389 15.543-13.35 22.981 4.762 7.438 18.111-12.262 21.842-12.512 21.341-.251-.501-10.469-26.103-10.469-26.103Z" fill="#FFBE9D"/><path d="M491.581 169.101c0-.097.403.084 1.043.112a3.433 3.433 0 0 0 2.377-.919c1.613-1.49 1.975-5.193.723-8.492a11.13 11.13 0 0 0-2.78-4.176 3.938 3.938 0 0 0-3.365-1.393 1.743 1.743 0 0 0-1.052.54c-.276.298-.44.683-.463 1.089 0 .599.236.919.153.989-.084.069-.515-.14-.681-.947a2.244 2.244 0 0 1 .25-1.392 2.602 2.602 0 0 1 1.557-1.184 4.758 4.758 0 0 1 4.435 1.393 11.55 11.55 0 0 1 3.17 4.594c1.39 3.703.917 7.879-1.39 9.745a3.684 3.684 0 0 1-3.073.71c-.695-.251-.959-.613-.904-.669ZM446.953 245.612s22.37-13.921 31.754-30.627c0 0 2.934 25.379-27.291 39.077l-4.463-8.45Z" fill="#EB996E"/><path d="m489.621 329.669 7.633 1.629-7.647 2.241a2.788 2.788 0 0 0-1.918 2.075l-1.905 9.16-2.058-8.993a2.782 2.782 0 0 0-2.071-2.061l-7.647-1.74 7.869-2.213a2.784 2.784 0 0 0 1.849-2.13l1.752-8.826 1.988 8.77a2.79 2.79 0 0 0 2.155 2.088ZM472.257 352.764l3.406.724-3.406.988a1.252 1.252 0 0 0-.862.933l-.848 4.079-.946-4.009a1.21 1.21 0 0 0-.917-.919l-3.407-.766 3.504-.988a1.271 1.271 0 0 0 .876-.947l.778-3.926.876 3.898a1.22 1.22 0 0 0 .946.933ZM574.345 240.656l3.407.724-3.407.989a1.257 1.257 0 0 0-.862.932l-.848 4.079-.945-4.009a1.215 1.215 0 0 0-.918-.919l-3.406-.765 3.504-.989a1.236 1.236 0 0 0 .876-.947l.778-3.925.876 3.898c.051.23.168.44.335.606.168.165.38.278.61.326Z" fill="#fff"/><path d="M551.086 550.529h-379.05v19.629h379.05v-19.629Z" fill="#4A4566"/><path d="M551.123 550.529H441.461v19.629h109.662v-19.629Z" fill="#6E7191"/><path d="M196.505 570.173a7.577 7.577 0 0 1-.445-.864c-.278-.556-.681-1.392-1.209-2.352a49.404 49.404 0 0 0-10.664-13.629c-.834-.752-1.515-1.392-1.988-1.74a4.282 4.282 0 0 1-.723-.655c.276.174.541.364.793.571.5.362 1.209.933 2.043 1.671a44.702 44.702 0 0 1 10.719 13.684c.501 1.003.89 1.824 1.127 2.409.136.293.252.595.347.905ZM225.215 570.521a25.291 25.291 0 0 1-5.561-.571 33.371 33.371 0 0 1-5.645-1.74 37.547 37.547 0 0 1-6.464-3.495 38.213 38.213 0 0 1-9.482-9.327 32.17 32.17 0 0 1-2.781-4.747s.084.111.209.32l.57.947a39.452 39.452 0 0 0 2.21 3.355 39.538 39.538 0 0 0 9.482 9.202 38.015 38.015 0 0 0 6.395 3.494 33.367 33.367 0 0 0 5.673 1.782 22.36 22.36 0 0 0 2.252.418c.57.106 1.146.176 1.724.208l1.085.098.333.056ZM251.728 560.525s-1.71.195-4.824.223c-1.557 0-3.462 0-5.673-.181a76.7 76.7 0 0 1-3.531-.348l-1.919-.264a7.41 7.41 0 0 1-1.988-.488 2.697 2.697 0 0 1-.935-.533 2.71 2.71 0 0 1-.65-.859 1.91 1.91 0 0 1 .64-2.13 5.334 5.334 0 0 1 2.155-.933 39.126 39.126 0 0 1 2.349-.584 56.542 56.542 0 0 1 21.897-.654c2.025.314 4.023.779 5.979 1.392a4.553 4.553 0 0 1 2.488 1.935 3.903 3.903 0 0 1 .153 3.188 4.991 4.991 0 0 1-1.946 2.547c-.89.579-1.88.985-2.92 1.197-2.03.446-4.032.794-6.006 1.128a82.455 82.455 0 0 1-11.511 1.142 41.68 41.68 0 0 1-19.061-3.689 31.724 31.724 0 0 1-10.525-7.852 25.28 25.28 0 0 1-2.183-2.784c-.458-.696-.681-1.058-.681-1.058s.264.348.723 1.016c.68.975 1.423 1.906 2.225 2.784a31.972 31.972 0 0 0 10.538 7.615 41.672 41.672 0 0 0 18.977 3.606 83.99 83.99 0 0 0 11.456-1.156c1.975-.334 3.991-.696 5.993-1.127a8.348 8.348 0 0 0 2.78-1.156 4.812 4.812 0 0 0 1.835-2.408 3.635 3.635 0 0 0-.153-2.952 4.17 4.17 0 0 0-2.335-1.809 42.237 42.237 0 0 0-5.923-1.392 57.131 57.131 0 0 0-21.786.612c-.806.167-1.585.376-2.335.571a5.03 5.03 0 0 0-2.086.891 1.728 1.728 0 0 0-.584 1.879c.262.629.762 1.13 1.39 1.392.625.246 1.28.405 1.947.474l1.919.278c1.237.153 2.419.279 3.517.362 2.197.181 4.171.237 5.658.237 1.488 0 2.781 0 3.573-.07l1.363-.042ZM318.837 551.866h-.528c-.348 0-.848-.112-1.502-.098-1.84-.05-3.679.156-5.464.613-2.647.69-5.2 1.7-7.604 3.007a89.883 89.883 0 0 0-8.537 5.318c-2.947 2.018-5.783 3.911-8.495 5.429a36.083 36.083 0 0 1-7.563 3.285 20.27 20.27 0 0 1-5.477.877c-.678.024-1.356.001-2.03-.069h.528c.5.025 1.001.025 1.502 0a21.274 21.274 0 0 0 5.422-.961 37.344 37.344 0 0 0 7.479-3.313c2.698-1.531 5.562-3.425 8.467-5.443a86.112 86.112 0 0 1 8.578-5.318 32.576 32.576 0 0 1 7.675-2.965 19.602 19.602 0 0 1 5.561-.529c.666.012 1.33.067 1.988.167ZM344.697 560.553l-1.043-.223a18.852 18.852 0 0 0-3.031-.376 17.93 17.93 0 0 0-4.796.39c-.986.209-1.953.498-2.892.863a5.102 5.102 0 0 0-2.684 1.852 2.786 2.786 0 0 0 .459 3.327 7.815 7.815 0 0 0 3.337 2.116c2.825.913 5.856.976 8.717.181a28.675 28.675 0 0 0 4.56-1.504 15.32 15.32 0 0 0 4.338-2.436 5.885 5.885 0 0 0 2.169-4.441 7.319 7.319 0 0 0-1.974-4.761 9.615 9.615 0 0 0-4.449-2.784 14.21 14.21 0 0 0-5.117-.473 37.045 37.045 0 0 0-9.509 2.394 99.632 99.632 0 0 0-15.154 6.961 104.895 104.895 0 0 0-9.482 6.055c-1.085.78-1.905 1.393-2.461 1.81-.556.418-.876.641-.876.641s1.126-.961 3.267-2.548a102.42 102.42 0 0 1 9.454-6.139 96.833 96.833 0 0 1 15.154-7.03 37.34 37.34 0 0 1 9.58-2.423 14.869 14.869 0 0 1 5.227.474 10.101 10.101 0 0 1 4.588 2.784 7.578 7.578 0 0 1 2.044 4.956 6.177 6.177 0 0 1-2.28 4.649 15.773 15.773 0 0 1-4.408 2.492 31.114 31.114 0 0 1-4.601 1.504c-2.915.793-5.997.72-8.87-.209a8.072 8.072 0 0 1-3.421-2.2 3.592 3.592 0 0 1-.834-1.768 2.672 2.672 0 0 1 .376-1.823 5.293 5.293 0 0 1 2.78-1.921c.95-.357 1.926-.641 2.92-.85a19.186 19.186 0 0 1 4.824-.348c1.026.059 2.045.208 3.045.446.751.25 1.043.362 1.043.362ZM375.825 570.047v-1.016c.058-.927.058-1.857 0-2.784a19.372 19.372 0 0 0-2.683-8.645 15.991 15.991 0 0 0-6.645-6.056 17.867 17.867 0 0 0-3.587-1.197 10.76 10.76 0 0 1 3.67 1.002 15.8 15.8 0 0 1 6.812 6.097 18.819 18.819 0 0 1 2.642 8.785 14.603 14.603 0 0 1-.209 3.814ZM416.339 569.866a43.346 43.346 0 0 1-5.839-1.211 58.384 58.384 0 0 1-6.159-2.032 67.417 67.417 0 0 1-7.16-3.425 63.98 63.98 0 0 1-11.651-8.464 44.067 44.067 0 0 1-3.114-3.077l-.807-.877a4.634 4.634 0 0 1-.264-.306s.111.083.306.278l.848.836c.709.737 1.794 1.768 3.156 2.993A64.767 64.767 0 0 0 404.48 566.4a61.637 61.637 0 0 0 6.103 2.088 74.31 74.31 0 0 0 4.171 1.058l1.168.237c.142.01.282.038.417.083ZM444.798 564.381l-.389-.181c-.25-.125-.584-.348-1.07-.571a27.286 27.286 0 0 0-4.171-1.628 42.69 42.69 0 0 0-6.479-1.392c-2.461-.362-5.2-.599-8.064-.975-5.728-.71-10.844-2.422-13.903-4.691a17.912 17.912 0 0 1-3.336-2.993c-.668-.822-.988-1.309-.988-1.309s.112.097.292.306c.181.209.417.543.779.933a19.055 19.055 0 0 0 3.378 2.896c3.073 2.199 8.134 3.856 13.903 4.566 2.85.376 5.561.626 8.064 1.002 2.198.287 4.37.752 6.493 1.392a24.21 24.21 0 0 1 4.171 1.726c.792.585 1.32.919 1.32.919Z" fill="#8883A5"/></g></svg>