<svg width="92" height="92" fill="none" xmlns="http://www.w3.org/2000/svg"><g filter="url(#a)"><path d="M46 77.5c19.606 0 35.5-15.894 35.5-35.5S65.606 6.5 46 6.5 10.5 22.394 10.5 42 26.394 77.5 46 77.5Z" fill="#fff" stroke="#DCDDEB"/><path d="M45.602 61.203c10.825 0 19.601-8.776 19.601-19.601C65.203 30.776 56.427 22 45.602 22 34.776 22 26 30.776 26 41.602c0 10.825 8.776 19.601 19.602 19.601Z" fill="#0075FF"/><path d="M43.641 49.442a1.955 1.955 0 0 1-1.385-.574l-5.88-5.88a1.958 1.958 0 0 1 0-2.772 1.958 1.958 0 0 1 2.77 0l4.495 4.495 8.415-8.416a1.958 1.958 0 0 1 2.772 0 1.958 1.958 0 0 1 0 2.772l-9.8 9.801a1.955 1.955 0 0 1-1.387.574Z" fill="#EDF5FF"/></g><defs><filter id="a" x="0" y="0" width="92" height="92" filterUnits="userSpaceOnUse" color-interpolation-filters="sRGB"><feFlood flood-opacity="0" result="BackgroundImageFix"/><feColorMatrix in="SourceAlpha" values="0 0 0 0 0 0 0 0 0 0 0 0 0 0 0 0 0 0 127 0" result="hardAlpha"/><feOffset dy="4"/><feGaussianBlur stdDeviation="5"/><feColorMatrix values="0 0 0 0 0.0784314 0 0 0 0 0.0784314 0 0 0 0 0.168627 0 0 0 0.04 0"/><feBlend in2="BackgroundImageFix" result="effect1_dropShadow_1_305"/><feBlend in="SourceGraphic" in2="effect1_dropShadow_1_305" result="shape"/></filter></defs></svg>