<svg width="92" height="92" fill="none" xmlns="http://www.w3.org/2000/svg"><g filter="url(#a)"><path d="M46 77.5c19.606 0 35.5-15.894 35.5-35.5S65.606 6.5 46 6.5 10.5 22.394 10.5 42 26.394 77.5 46 77.5Z" fill="#fff" stroke="#DCDDEB"/><path d="M53.206 44.588H38.794a7.206 7.206 0 0 0 0 14.412h14.412a7.206 7.206 0 0 0 0-14.412Z" fill="#123578"/><path d="M46 40.47A8.235 8.235 0 1 0 46 24a8.235 8.235 0 0 0 0 16.47Z" fill="#0075FF"/></g><defs><filter id="a" x="0" y="0" width="92" height="92" filterUnits="userSpaceOnUse" color-interpolation-filters="sRGB"><feFlood flood-opacity="0" result="BackgroundImageFix"/><feColorMatrix in="SourceAlpha" values="0 0 0 0 0 0 0 0 0 0 0 0 0 0 0 0 0 0 127 0" result="hardAlpha"/><feOffset dy="4"/><feGaussianBlur stdDeviation="5"/><feColorMatrix values="0 0 0 0 0.0784314 0 0 0 0 0.0784314 0 0 0 0 0.168627 0 0 0 0.04 0"/><feBlend in2="BackgroundImageFix" result="effect1_dropShadow_1_313"/><feBlend in="SourceGraphic" in2="effect1_dropShadow_1_313" result="shape"/></filter></defs></svg>